<?xml version="1.0" encoding="UTF-8"?>
<svg width="512" height="512" viewBox="0 0 512 512" fill="none" xmlns="http://www.w3.org/2000/svg">
    <!-- Background Circle -->
    <circle cx="256" cy="256" r="256" fill="#4F46E5" />

    <!-- Stylized "S" with loop -->
    <path
        d="M320 160C320 137.909 302.091 120 280 120H200C177.909 120 160 137.909 160 160C160 182.091 177.909 200 200 200H280C302.091 200 320 217.909 320 240C320 262.091 302.091 280 280 280H200C177.909 280 160 297.909 160 320C160 342.091 177.909 360 200 360H280C302.091 360 320 342.091 320 320"
        stroke="white"
        stroke-width="32"
        stroke-linecap="round" />

    <!-- Loop element -->
    <path d="M360 120C393.137 120 420 146.863 420 180C420 213.137 393.137 240 360 240"
        stroke="white"
        stroke-width="24"
        stroke-linecap="round" />

    <path d="M152 392C118.863 392 92 365.137 92 332C92 298.863 118.863 272 152 272"
        stroke="white"
        stroke-width="24"
        stroke-linecap="round" />
</svg> 